<svg width="322" height="645" viewBox="0 0 322 645" fill="none" xmlns="http://www.w3.org/2000/svg">
<path d="M321.324 153.136H317.784V56.1392C317.784 41.2502 311.869 26.9709 301.341 16.4428C290.813 5.91467 276.534 1.85655e-05 261.645 3.56295e-10H56.1437C48.7714 -2.62641e-05 41.4713 1.45203 34.6602 4.27326C27.8491 7.09449 21.6603 11.2296 16.4473 16.4426C11.2343 21.6556 7.09908 27.8443 4.2778 34.6554C1.45652 41.4665 0.0044208 48.7666 0.00439453 56.1389V588.271C0.00438403 595.644 1.45643 602.944 4.27768 609.755C7.09893 616.566 11.2341 622.755 16.4471 627.968C21.6601 633.181 27.8488 637.316 34.6599 640.137C41.471 642.958 48.7711 644.411 56.1434 644.411H261.644C269.017 644.411 276.317 642.958 283.128 640.137C289.939 637.316 296.128 633.181 301.341 627.968C306.554 622.755 310.689 616.566 313.51 609.755C316.332 602.944 317.784 595.644 317.784 588.272V222.18H321.324V153.136Z" fill="#3F3D56"/>
<path d="M263.487 15.9336H236.662C237.896 18.958 238.367 22.2393 238.034 25.4885C237.7 28.7378 236.573 31.8552 234.751 34.5662C232.929 37.2771 230.469 39.4984 227.586 41.0344C224.703 42.5704 221.487 43.3739 218.221 43.3742H100.492C97.2258 43.3739 94.0097 42.5704 91.1271 41.0344C88.2445 39.4984 85.7838 37.2771 83.9619 34.5662C82.14 31.8552 81.0128 28.7378 80.6795 25.4886C80.3462 22.2393 80.8171 18.958 82.0507 15.9336H56.9964C45.8774 15.9336 35.2139 20.3505 27.3516 28.2128C19.4893 36.0751 15.0723 46.7386 15.0723 57.8576V589.209C15.0723 594.715 16.1567 600.166 18.2635 605.253C20.3704 610.339 23.4585 614.961 27.3515 618.854C31.2445 622.747 35.8662 625.835 40.9527 627.942C46.0392 630.049 51.4908 631.133 56.9963 631.133H263.487C274.606 631.133 285.269 626.716 293.132 618.854C300.994 610.992 305.411 600.328 305.411 589.209V57.8577C305.411 52.3521 304.327 46.9005 302.22 41.814C300.113 36.7275 297.025 32.1059 293.132 28.2129C289.239 24.3198 284.617 21.2317 279.531 19.1249C274.444 17.018 268.993 15.9336 263.487 15.9336ZM258.98 262.431C258.972 265.308 257.825 268.066 255.79 270.1C253.756 272.135 250.999 273.282 248.121 273.29H195.635C192.758 273.282 190 272.135 187.966 270.1C185.931 268.066 184.784 265.308 184.776 262.431V259.716C184.784 256.839 185.931 254.082 187.966 252.047C190 250.012 192.758 248.865 195.635 248.857H248.121C250.999 248.865 253.756 250.012 255.79 252.047C257.825 254.082 258.972 256.839 258.98 259.716V262.431ZM264.862 214.469C264.854 217.347 263.707 220.104 261.672 222.139C259.638 224.173 256.881 225.32 254.003 225.329H65.7771C62.8996 225.32 60.1424 224.173 58.1078 222.139C56.0731 220.104 54.9263 217.347 54.9179 214.469V211.755C54.9263 208.877 56.0731 206.12 58.1078 204.085C60.1424 202.051 62.8996 200.904 65.7771 200.896H254.003C256.881 200.904 259.638 202.051 261.672 204.085C263.707 206.12 264.854 208.877 264.862 211.755V214.469ZM264.862 166.508C264.854 169.385 263.707 172.143 261.672 174.177C259.638 176.212 256.881 177.359 254.003 177.367H65.7771C62.8996 177.359 60.1424 176.212 58.1078 174.177C56.0731 172.143 54.9263 169.385 54.9179 166.508V163.793C54.9263 160.916 56.0731 158.159 58.1078 156.124C60.1424 154.089 62.8996 152.942 65.7771 152.934H254.003C256.881 152.942 259.638 154.089 261.672 156.124C263.707 158.159 264.854 160.916 264.862 163.793V166.508ZM264.862 118.547C264.854 121.424 263.707 124.181 261.672 126.216C259.638 128.251 256.881 129.397 254.003 129.406H65.7771C62.8996 129.397 60.1424 128.251 58.1078 126.216C56.0731 124.181 54.9263 121.424 54.9179 118.547V115.832C54.9263 112.954 56.0731 110.197 58.1078 108.162C60.1424 106.128 62.8996 104.981 65.7771 104.973H254.003C256.881 104.981 259.638 106.128 261.672 108.162C263.707 110.197 264.854 112.954 264.862 115.832V118.547Z" fill="white"/>
<path d="M69.8494 219.899C73.3479 219.899 76.1839 217.062 76.1839 213.564C76.1839 210.066 73.3479 207.229 69.8494 207.229C66.351 207.229 63.5149 210.066 63.5149 213.564C63.5149 217.062 66.351 219.899 69.8494 219.899Z" fill="white"/>
<path d="M90.6629 219.899C94.1614 219.899 96.9974 217.062 96.9974 213.564C96.9974 210.066 94.1614 207.229 90.6629 207.229C87.1644 207.229 84.3284 210.066 84.3284 213.564C84.3284 217.062 87.1644 219.899 90.6629 219.899Z" fill="white"/>
<path d="M111.476 219.899C114.975 219.899 117.811 217.062 117.811 213.564C117.811 210.066 114.975 207.229 111.476 207.229C107.978 207.229 105.142 210.066 105.142 213.564C105.142 217.062 107.978 219.899 111.476 219.899Z" fill="white"/>
<path d="M132.29 219.899C135.788 219.899 138.624 217.062 138.624 213.564C138.624 210.066 135.788 207.229 132.29 207.229C128.791 207.229 125.955 210.066 125.955 213.564C125.955 217.062 128.791 219.899 132.29 219.899Z" fill="white"/>
<path d="M200.16 267.86C203.658 267.86 206.494 265.024 206.494 261.526C206.494 258.027 203.658 255.191 200.16 255.191C196.661 255.191 193.825 258.027 193.825 261.526C193.825 265.024 196.661 267.86 200.16 267.86Z" fill="white"/>
<path d="M220.973 267.86C224.472 267.86 227.308 265.024 227.308 261.526C227.308 258.027 224.472 255.191 220.973 255.191C217.475 255.191 214.639 258.027 214.639 261.526C214.639 265.024 217.475 267.86 220.973 267.86Z" fill="white"/>
<path d="M241.787 267.86C245.285 267.86 248.121 265.024 248.121 261.526C248.121 258.027 245.285 255.191 241.787 255.191C238.288 255.191 235.452 258.027 235.452 261.526C235.452 265.024 238.288 267.86 241.787 267.86Z" fill="white"/>
<path d="M266.319 343.602H51.6519C46.6086 343.602 41.7719 345.605 38.2058 349.171C34.6396 352.737 32.6362 357.574 32.6362 362.617V467.207C32.6362 472.25 34.6397 477.087 38.2058 480.653C41.7719 484.219 46.6086 486.223 51.6519 486.223H266.319C271.362 486.223 276.199 484.22 279.765 480.653C283.331 477.087 285.334 472.251 285.334 467.207V362.617C285.334 357.574 283.331 352.737 279.765 349.171C276.199 345.605 271.362 343.602 266.319 343.602ZM46.3407 356.573C46.7646 356.497 56.8165 354.786 65.14 359.794C73.463 364.802 76.6609 374.485 76.7927 374.894L77.1292 375.938L76.0491 376.13C74.5082 376.371 72.9502 376.485 71.3907 376.472C66.4434 376.567 61.5608 375.336 57.2493 372.908C48.9263 367.901 45.7289 358.218 45.5971 357.809L45.2606 356.765L46.3407 356.573ZM92.9392 453.678H54.6516C51.8591 453.678 49.181 452.569 47.2064 450.595C45.2318 448.62 44.1225 445.942 44.1225 443.149C44.1225 440.357 45.2318 437.679 47.2064 435.704C49.181 433.73 51.8591 432.62 54.6516 432.62H92.9392C95.7317 432.62 98.4098 433.73 100.384 435.704C102.359 437.679 103.468 440.357 103.468 443.149C103.468 445.942 102.359 448.62 100.384 450.595C98.4098 452.569 95.7317 453.678 92.9392 453.678ZM267.148 451.764C267.139 454.808 265.926 457.724 263.774 459.876C261.622 462.028 258.705 463.241 255.661 463.25H226.946C223.902 463.241 220.986 462.028 218.834 459.876C216.682 457.724 215.468 454.808 215.46 451.764V434.535C215.468 431.491 216.681 428.575 218.834 426.422C220.986 424.27 223.902 423.057 226.946 423.048H255.661C258.705 423.057 261.622 424.27 263.774 426.422C265.926 428.575 267.139 431.491 267.148 434.535L267.148 451.764Z" fill="#F3271C"/>
<path d="M236.204 448.213H224.659C223.834 448.213 223.043 448.54 222.46 449.123C221.878 449.706 221.55 450.497 221.55 451.321C221.55 452.146 221.878 452.936 222.46 453.519C223.043 454.102 223.834 454.43 224.659 454.43H236.204C237.029 454.43 237.819 454.102 238.402 453.519C238.985 452.936 239.313 452.146 239.313 451.321C239.313 450.497 238.985 449.706 238.402 449.123C237.819 448.54 237.029 448.213 236.204 448.213Z" fill="#3F3D56"/>
<path d="M257.52 448.213H245.974C245.149 448.213 244.359 448.54 243.776 449.123C243.193 449.706 242.865 450.497 242.865 451.321C242.865 452.146 243.193 452.936 243.776 453.519C244.359 454.102 245.149 454.43 245.974 454.43H257.52C258.344 454.43 259.135 454.102 259.718 453.519C260.3 452.936 260.628 452.146 260.628 451.321C260.628 450.497 260.3 449.706 259.718 449.123C259.135 448.54 258.344 448.213 257.52 448.213Z" fill="#3F3D56"/>
<path d="M236.203 439.438H224.657C223.832 439.438 223.042 439.766 222.459 440.349C221.876 440.932 221.548 441.723 221.548 442.547C221.548 443.371 221.876 444.162 222.459 444.745C223.042 445.328 223.832 445.655 224.657 445.655H236.203C237.027 445.655 237.818 445.328 238.401 444.745C238.984 444.162 239.311 443.371 239.311 442.547C239.311 441.723 238.984 440.932 238.401 440.349C237.818 439.766 237.027 439.438 236.203 439.438Z" fill="#3F3D56"/>
<path d="M257.518 439.438H245.972C245.148 439.438 244.357 439.766 243.774 440.349C243.191 440.932 242.864 441.723 242.864 442.547C242.864 443.371 243.191 444.162 243.774 444.745C244.357 445.328 245.148 445.655 245.972 445.655H257.518C258.342 445.655 259.133 445.328 259.716 444.745C260.299 444.162 260.626 443.371 260.626 442.547C260.626 441.723 260.299 440.932 259.716 440.349C259.133 439.766 258.342 439.438 257.518 439.438Z" fill="#3F3D56"/>
<path d="M236.203 430.841H224.657C223.832 430.841 223.042 431.168 222.459 431.751C221.876 432.334 221.548 433.125 221.548 433.949C221.548 434.774 221.876 435.564 222.459 436.147C223.042 436.73 223.832 437.058 224.657 437.058H236.203C237.027 437.058 237.818 436.73 238.401 436.147C238.984 435.564 239.311 434.774 239.311 433.949C239.311 433.125 238.984 432.334 238.401 431.751C237.818 431.168 237.027 430.841 236.203 430.841Z" fill="#3F3D56"/>
<path d="M257.518 430.841H245.972C245.148 430.841 244.357 431.168 243.774 431.751C243.191 432.334 242.864 433.125 242.864 433.949C242.864 434.774 243.191 435.564 243.774 436.147C244.357 436.73 245.148 437.058 245.972 437.058H257.518C258.342 437.058 259.133 436.73 259.716 436.147C260.299 435.564 260.626 434.774 260.626 433.949C260.626 433.125 260.299 432.334 259.716 431.751C259.133 431.168 258.342 430.841 257.518 430.841Z" fill="#3F3D56"/>
</svg>
