<svg width="453" height="596" viewBox="0 0 453 596" fill="none" xmlns="http://www.w3.org/2000/svg">
<path d="M281.126 0H72.5831C40.1483 0 13.8547 26.2936 13.8547 58.7284V535.272C13.8547 567.706 40.1483 594 72.5831 594H281.126C313.561 594 339.855 567.706 339.855 535.272V58.7284C339.855 26.2936 313.561 0 281.126 0Z" fill="#3F3D56"/>
<path d="M334.355 58.732V535.272C334.339 549.384 328.725 562.914 318.746 572.893C308.767 582.872 295.238 588.486 281.125 588.502H72.5852C58.4728 588.486 44.943 582.872 34.964 572.893C24.9849 562.914 19.3716 549.384 19.3552 535.272V58.732C19.3716 44.6195 24.9849 31.0897 34.964 21.1107C44.943 11.1317 58.4728 5.51829 72.5852 5.50195H99.8552V14.922C99.8555 19.1866 101.55 23.2764 104.565 26.292C107.581 29.3075 111.671 31.0017 115.935 31.002H237.775C242.04 31.0017 246.13 29.3075 249.145 26.292C252.161 23.2764 253.855 19.1866 253.855 14.922V5.50195H281.125C295.238 5.51829 308.767 11.1317 318.746 21.1107C328.725 31.0897 334.339 44.6195 334.355 58.732Z" fill="white"/>
<path d="M12.3547 120.5C11.2942 120.499 10.2775 120.077 9.52765 119.327C8.77777 118.577 8.35595 117.56 8.35474 116.5V108.5C8.35474 107.439 8.77616 106.422 9.52631 105.672C10.2765 104.921 11.2939 104.5 12.3547 104.5C13.4156 104.5 14.433 104.921 15.1832 105.672C15.9333 106.422 16.3547 107.439 16.3547 108.5V116.5C16.3535 117.56 15.9317 118.577 15.1818 119.327C14.4319 120.077 13.4152 120.499 12.3547 120.5Z" fill="#3F3D56"/>
<path d="M12.3547 161.521C11.2942 161.52 10.2775 161.098 9.52765 160.349C8.77777 159.599 8.35595 158.582 8.35474 157.521V135.5C8.35474 134.439 8.77616 133.422 9.52631 132.672C10.2765 131.921 11.2939 131.5 12.3547 131.5C13.4156 131.5 14.433 131.921 15.1832 132.672C15.9333 133.422 16.3547 134.439 16.3547 135.5V157.521C16.3535 158.582 15.9317 159.599 15.1818 160.349C14.4319 161.098 13.4152 161.52 12.3547 161.521Z" fill="#3F3D56"/>
<path d="M12.3547 194.5C11.2942 194.499 10.2775 194.077 9.52765 193.327C8.77777 192.577 8.35595 191.56 8.35474 190.5V168.479C8.35474 167.418 8.77616 166.4 9.52631 165.65C10.2765 164.9 11.2939 164.479 12.3547 164.479C13.4156 164.479 14.433 164.9 15.1832 165.65C15.9333 166.4 16.3547 167.418 16.3547 168.479V190.5C16.3535 191.56 15.9317 192.577 15.1818 193.327C14.4319 194.077 13.4152 194.499 12.3547 194.5Z" fill="#3F3D56"/>
<path d="M340.355 176.5C339.294 176.499 338.278 176.077 337.528 175.327C336.778 174.577 336.356 173.56 336.355 172.5V118.767C336.355 117.706 336.776 116.688 337.526 115.938C338.276 115.188 339.294 114.767 340.355 114.767C341.416 114.767 342.433 115.188 343.183 115.938C343.933 116.688 344.355 117.706 344.355 118.767V172.5C344.354 173.56 343.932 174.577 343.182 175.327C342.432 176.077 341.415 176.499 340.355 176.5Z" fill="#3F3D56"/>
<path d="M185.447 18.3457H154.447C153.784 18.3457 153.148 18.0823 152.68 17.6135C152.211 17.1446 151.947 16.5087 151.947 15.8457C151.947 15.1827 152.211 14.5468 152.68 14.0779C153.148 13.6091 153.784 13.3457 154.447 13.3457H185.447C186.11 13.3457 186.746 13.6091 187.215 14.0779C187.684 14.5468 187.947 15.1827 187.947 15.8457C187.947 16.5087 187.684 17.1446 187.215 17.6135C186.746 18.0823 186.11 18.3457 185.447 18.3457Z" fill="white"/>
<path d="M201.447 17.8457C202.552 17.8457 203.447 16.9503 203.447 15.8457C203.447 14.7411 202.552 13.8457 201.447 13.8457C200.343 13.8457 199.447 14.7411 199.447 15.8457C199.447 16.9503 200.343 17.8457 201.447 17.8457Z" fill="white"/>
<path d="M87.9407 29.0732H60.9407C59.6146 29.0732 58.3428 28.5465 57.4052 27.6088C56.4675 26.6711 55.9407 25.3993 55.9407 24.0732C55.9407 22.7472 56.4675 21.4754 57.4052 20.5377C58.3428 19.6 59.6146 19.0732 60.9407 19.0732H87.9407C89.2668 19.0732 90.5385 19.6 91.4762 20.5377C92.4139 21.4754 92.9407 22.7472 92.9407 24.0732C92.9407 25.3993 92.4139 26.6711 91.4762 27.6088C90.5385 28.5465 89.2668 29.0732 87.9407 29.0732Z" fill="#E6E6E6"/>
<path d="M264.941 28.5732C267.426 28.5732 269.441 26.5585 269.441 24.0732C269.441 21.588 267.426 19.5732 264.941 19.5732C262.455 19.5732 260.441 21.588 260.441 24.0732C260.441 26.5585 262.455 28.5732 264.941 28.5732Z" fill="#E6E6E6"/>
<path d="M278.941 28.5732C281.426 28.5732 283.441 26.5585 283.441 24.0732C283.441 21.588 281.426 19.5732 278.941 19.5732C276.455 19.5732 274.441 21.588 274.441 24.0732C274.441 26.5585 276.455 28.5732 278.941 28.5732Z" fill="#E6E6E6"/>
<path d="M292.941 28.5732C295.426 28.5732 297.441 26.5585 297.441 24.0732C297.441 21.588 295.426 19.5732 292.941 19.5732C290.455 19.5732 288.441 21.588 288.441 24.0732C288.441 26.5585 290.455 28.5732 292.941 28.5732Z" fill="#E6E6E6"/>
<path d="M261.794 98.957H92.0943C88.807 98.9616 85.6557 100.269 83.3312 102.594C81.0067 104.918 79.6989 108.07 79.6943 111.357V221.667C79.6989 224.954 81.0067 228.106 83.3312 230.43C85.6557 232.755 88.807 234.063 92.0943 234.067H261.794C265.082 234.064 268.235 232.757 270.559 230.432C272.884 228.107 274.192 224.955 274.194 221.667V111.357C274.192 108.069 272.884 104.917 270.559 102.592C268.235 100.267 265.082 98.9599 261.794 98.957Z" fill="#F2F2F2"/>
<path d="M208.667 146.049C193.331 173.164 176.408 199.349 157.986 224.469H131.373C148.804 203.233 166.248 181.998 183.705 160.762C188.713 154.648 194.148 148.242 201.66 145.758L208.667 146.049Z" fill="#3F3D56"/>
<path d="M173.301 141.701C170.525 144.593 167.865 147.602 165.361 150.727C159.849 157.366 154.414 164.063 148.959 170.74C145.562 174.894 142.166 179.048 138.808 183.202C137.741 182.517 136.729 181.751 135.779 180.911C130.416 176.256 127.089 169.685 126.512 162.606C125.935 155.528 128.153 148.504 132.692 143.042C137.231 137.579 143.728 134.112 150.793 133.382C157.857 132.653 164.927 134.719 170.486 139.139C171.488 139.92 172.429 140.777 173.301 141.701Z" fill="#F3271C"/>
<path d="M274.194 138.547V142.577L272.394 141.917L247.064 132.657C238.814 129.647 230.584 126.207 222.064 124.037C214.652 121.916 206.78 122.017 199.424 124.327C192.868 126.753 186.868 130.477 181.784 135.277C179.534 137.357 177.354 139.487 175.244 141.697C174.554 142.427 173.864 143.157 173.184 143.887C171.144 146.107 169.174 148.377 167.304 150.727C161.794 157.367 156.354 164.067 150.904 170.737C147.504 174.897 144.104 179.047 140.744 183.197C129.524 196.927 118.371 210.684 107.284 224.467C105.791 224.45 104.305 224.262 102.854 223.907C114.164 209.857 125.528 195.844 136.944 181.867C137.204 181.547 137.464 181.227 137.724 180.907C139.064 179.237 140.434 177.557 141.794 175.887C147.484 168.917 153.178 161.954 158.874 154.997C163.014 149.937 167.124 144.857 171.584 140.057C171.854 139.747 172.134 139.447 172.424 139.137C172.854 138.677 173.284 138.227 173.724 137.757C183.414 127.747 195.504 118.897 209.984 118.657C218.504 118.527 226.734 121.227 234.654 124.077C243.184 127.167 251.684 130.307 260.204 133.427L274.194 138.547Z" fill="#3F3D56"/>
<path d="M278.184 477.618H75.5259C72.2386 477.614 69.087 476.307 66.7625 473.982C64.438 471.658 63.1305 468.506 63.1267 465.219V437.906C63.1305 434.619 64.438 431.467 66.7625 429.143C69.087 426.818 72.2386 425.511 75.5259 425.507H278.184C281.472 425.511 284.623 426.818 286.948 429.143C289.272 431.467 290.58 434.619 290.584 437.906V465.219C290.58 468.506 289.272 471.658 286.948 473.982C284.623 476.307 281.472 477.614 278.184 477.618Z" fill="#F2F2F2"/>
<path d="M278.184 337.618H75.5259C72.2386 337.614 69.087 336.307 66.7625 333.982C64.438 331.658 63.1305 328.506 63.1267 325.219V297.906C63.1305 294.619 64.438 291.467 66.7625 289.143C69.087 286.818 72.2386 285.511 75.5259 285.507H278.184C281.472 285.511 284.623 286.818 286.948 289.143C289.272 291.467 290.58 294.619 290.584 297.906V325.219C290.58 328.506 289.272 331.658 286.948 333.982C284.623 336.307 281.472 337.614 278.184 337.618Z" fill="#F2F2F2"/>
<path d="M278.184 407.618H75.5259C72.2386 407.614 69.087 406.307 66.7625 403.982C64.438 401.658 63.1305 398.506 63.1267 395.219V367.906C63.1305 364.619 64.438 361.467 66.7625 359.143C69.087 356.818 72.2386 355.511 75.5259 355.507H278.184C281.472 355.511 284.623 356.818 286.948 359.143C289.272 361.467 290.58 364.619 290.584 367.906V395.219C290.58 398.506 289.272 401.658 286.948 403.982C284.623 406.307 281.472 407.614 278.184 407.618Z" fill="#F2F2F2"/>
<path d="M201.477 446.888H141.765C141.056 446.888 140.377 446.607 139.876 446.106C139.375 445.605 139.094 444.926 139.094 444.217C139.094 443.509 139.375 442.829 139.876 442.328C140.377 441.827 141.056 441.546 141.765 441.546H201.477C202.185 441.546 202.864 441.827 203.365 442.328C203.866 442.829 204.148 443.509 204.148 444.217C204.148 444.926 203.866 445.605 203.365 446.106C202.864 446.607 202.185 446.888 201.477 446.888Z" fill="white"/>
<path d="M258.907 461.58H141.097C140.389 461.58 139.709 461.298 139.208 460.797C138.707 460.296 138.426 459.617 138.426 458.909C138.426 458.2 138.707 457.521 139.208 457.02C139.709 456.519 140.389 456.237 141.097 456.237H258.907C259.615 456.237 260.294 456.519 260.795 457.02C261.296 457.521 261.578 458.2 261.578 458.909C261.578 459.617 261.296 460.296 260.795 460.797C260.294 461.298 259.615 461.58 258.907 461.58Z" fill="white"/>
<path d="M110.042 469.472C119.933 469.472 127.951 461.454 127.951 451.563C127.951 441.672 119.933 433.653 110.042 433.653C100.151 433.653 92.1326 441.672 92.1326 451.563C92.1326 461.454 100.151 469.472 110.042 469.472Z" fill="white"/>
<path d="M106.051 475.754C104.224 474.9 102.135 474.792 100.23 475.455C98.3242 476.117 96.7524 477.497 95.8488 479.301C95.6709 479.67 95.5239 480.054 95.4093 480.448L68.4401 482.059L64.4431 496.032L101.149 489.83C102.818 490.179 104.557 489.965 106.092 489.222C107.627 488.479 108.873 487.249 109.636 485.723C110.062 484.851 110.311 483.904 110.371 482.935C110.43 481.966 110.298 480.995 109.982 480.077C109.667 479.16 109.173 478.313 108.53 477.586C107.887 476.859 107.107 476.266 106.235 475.84C106.174 475.811 106.113 475.782 106.051 475.754Z" fill="#FFB6B6"/>
<path d="M46.5225 406.834C44.7453 406.107 42.8324 405.771 40.9138 405.849C38.9953 405.927 37.116 406.418 35.4039 407.287C33.6918 408.156 32.187 409.384 30.9919 410.887C29.7967 412.39 28.9391 414.132 28.4776 415.996L21.063 445.939L22.4577 498.323C22.4577 498.323 61.1597 505.749 67.6568 500.976C74.154 496.202 73.5439 492.649 74.1539 496.202C74.764 499.756 77.5526 501.247 77.5913 499.833C77.6301 498.419 77.9455 498.661 79.5646 498.235C81.1836 497.809 88.3295 495.176 88.3295 495.176L88.6495 480.24C88.6495 480.24 76.8359 475.762 73.9698 477.098C71.1038 478.434 74.5799 480.652 71.1038 478.434C67.6277 476.217 67.2478 469.219 66.6534 475.526C66.0591 481.833 64.3191 483.007 61.713 480.203C59.1068 477.398 47.0324 479.19 47.0324 479.19L54.7159 420.96C55.1023 418.031 54.508 415.057 53.0257 412.501C51.5435 409.946 49.2567 407.953 46.5225 406.834Z" fill="#F3271C"/>
<path d="M307.157 562.178L307.564 551.148L265.212 544.329L264.612 560.608L307.157 562.178Z" fill="#FFB6B6"/>
<path d="M299.469 565.499L299.067 547.838L306.617 548.117L318.806 531.79C319.408 530.984 320.252 530.391 321.215 530.098C322.178 529.805 323.209 529.828 324.158 530.162C325.107 530.497 325.924 531.126 326.49 531.958C327.056 532.79 327.341 533.781 327.304 534.787L326.53 555.767L318.929 559.107L326.345 560.795L326.053 568.705L299.469 565.499Z" fill="#2F2E41"/>
<path d="M68.7976 587.473L202.941 571.874C202.941 571.874 260.868 575.22 274.459 566.378L288.792 564.569L289.569 543.516C289.569 543.516 280.804 543.581 275.765 541.233C270.726 538.885 274.229 536.012 269.424 538.837C264.62 541.662 265.127 542.002 261.413 540.703C257.698 539.405 87.363 532.442 87.363 532.442L68.7976 587.473Z" fill="#2F2E41"/>
<path d="M245.563 578.337L253.363 570.527L226.953 536.724L215.441 548.25L245.563 578.337Z" fill="#FFB6B6"/>
<path d="M237.668 575.542L249.385 562.322L254.731 567.661L274.771 563.982C275.76 563.8 276.782 563.94 277.687 564.38C278.592 564.82 279.333 565.538 279.801 566.429C280.269 567.319 280.44 568.337 280.289 569.332C280.138 570.326 279.673 571.247 278.962 571.959L264.126 586.813L256.281 584.092L260.57 590.373L254.976 595.973L237.668 575.542Z" fill="#2F2E41"/>
<path d="M15.8745 514.007L17.2081 545.007C18.778 581.5 58.9674 603.588 90.1312 584.534C90.7056 584.182 91.2819 583.819 91.8601 583.442C91.8601 583.442 103.674 580.269 103.316 575.245C102.957 570.22 105.843 567.775 108.397 569.145C110.952 570.515 144.394 523.055 144.394 523.055C144.394 523.055 213.875 557.714 229.203 565.873L245.377 561.466C245.377 561.466 251.464 564.341 249.271 560.183C247.079 556.025 246.685 558.016 246.012 553.486C245.338 548.956 243.615 543.339 242.57 543.576C241.525 543.812 156.613 484.381 156.613 484.381C156.613 484.381 142.78 470.381 125.62 479.624C125.263 480.982 125.568 481.03 125.568 481.03L68.8839 527.218L60.8745 512.007L15.8745 514.007Z" fill="#2F2E41"/>
<path d="M53.973 400.104L29.6693 388.714L22.3932 401.375C22.3932 401.375 2.85137 429.261 2.5679 449.379C2.28443 469.497 5.75256 475.48 5.75256 475.48C5.75256 475.48 -2.67314 481.779 1.5397 485.63C5.75254 489.48 15.0792 491.141 7.91589 492.811C0.752541 494.48 2.5679 511.379 10.5679 514.379C18.5679 517.379 61.5321 517.353 61.5321 517.353C61.1458 516.043 61.1174 514.653 61.4497 513.328C61.782 512.003 62.463 510.791 63.4218 509.819C66.7526 506.48 69.7526 508.876 66.7526 503.678C63.7526 498.48 58.7526 501.48 62.7526 494.48C66.7526 487.48 66.7511 485.388 66.7511 485.388C66.7511 485.388 74.9055 469.869 62.623 453.033C61.8743 452.007 62.5038 451.968 62.5038 451.968L52.5858 418.732L53.973 400.104Z" fill="#F3271C"/>
<path d="M14.8064 352.211C15.012 357.345 11.7767 364.618 10.1835 369.004C8.4802 373.693 15.8628 379.917 20.5881 381.28C20.8341 379.655 21.6444 378.169 22.8768 377.083C22.5362 378.631 22.5065 380.231 22.7895 381.791L62.7374 390.885C69.924 382.563 77.1501 370.599 75.5739 356.169C75.9514 353.429 75.511 350.638 74.3082 348.147C73.1054 345.657 71.1936 343.577 68.8129 342.169L48.6174 330.238C40.0272 328.282 29.2094 327.102 23.0048 332.417C20.2326 334.883 18.0549 337.945 16.635 341.374C15.2152 344.802 14.59 348.507 14.8064 352.211Z" fill="#2F2E41"/>
<path d="M50.5139 386.488C63.2165 386.488 73.5139 376.191 73.5139 363.488C73.5139 350.786 63.2165 340.488 50.5139 340.488C37.8114 340.488 27.5139 350.786 27.5139 363.488C27.5139 376.191 37.8114 386.488 50.5139 386.488Z" fill="#FFB6B6"/>
<path d="M23.5694 351.201L22.4595 356.077L41.863 360.494C41.8803 359.508 42.1011 358.536 42.5117 357.64C42.9223 356.743 43.5138 355.941 44.2491 355.284C43.8306 357.195 43.8783 359.18 44.3884 361.069C54.8528 366.941 64.2846 369.021 72.7421 367.524C73.8879 367.785 75.0904 367.58 76.0851 366.954C77.0797 366.328 77.7851 365.333 78.0459 364.187C81.4488 349.24 72.5338 333.962 57.6597 330.252C54.0443 329.348 50.2847 329.175 46.6015 329.743C42.9182 330.311 39.3855 331.609 36.2104 333.56C33.0352 335.511 30.2815 338.077 28.1109 341.106C25.9402 344.135 24.3962 347.568 23.5694 351.201Z" fill="#2F2E41"/>
<path d="M34.9136 319.035C37.4721 318.48 40.1798 318.614 42.4931 316.881L40.976 320.363C45.1822 319.211 49.6662 319.659 53.5613 321.62C54.7195 322.14 55.7072 322.976 56.4105 324.032C56.7884 324.671 57.0183 325.386 57.0832 326.124C57.1481 326.863 57.0463 327.607 56.7853 328.302C56.5366 328.897 56.1665 329.434 55.6985 329.879C55.2304 330.323 54.6749 330.665 54.0672 330.883C52.9903 331.207 51.862 331.325 50.7414 331.231C46.0193 331.121 41.2972 331.011 36.5751 330.901C34.7756 331.013 32.9773 330.663 31.3505 329.886C30.4857 329.352 29.7956 328.577 29.365 327.656C28.9344 326.735 28.782 325.709 28.9266 324.703C29.377 321.537 32.3551 319.59 34.9136 319.035Z" fill="#2F2E41"/>
<path d="M159.679 499.296C159.624 499.23 159.561 499.172 159.491 499.123C159.319 498.924 159.109 498.76 158.874 498.641L157.191 497.74L146.018 485.335C145.371 484.998 144.619 484.926 143.92 485.134L143.891 485.143L139.105 486.623L134.988 487.901L129.238 489.683L90.0719 501.811L64.3271 509.782C63.631 510.002 63.0493 510.487 62.7072 511.132C62.365 511.777 62.2897 512.53 62.4976 513.23C62.6186 513.615 62.8188 513.971 63.0854 514.274L63.9047 515.186L65.623 517.1L69.6041 525.351L70.7087 526.584C71.0607 526.976 71.5172 527.26 72.0247 527.402C72.5323 527.545 73.0699 527.54 73.5746 527.388L158.389 503.803C158.83 503.66 159.229 503.411 159.55 503.078C159.872 502.745 160.107 502.338 160.234 501.893C160.362 501.448 160.378 500.978 160.281 500.525C160.184 500.072 159.977 499.65 159.679 499.296Z" fill="#CCCCCC"/>
<path d="M154.643 376.591L153.001 376.857C152.55 376.932 152.148 377.181 151.881 377.552L151.157 378.564L144.63 394.885C144.365 395.258 144.258 395.722 144.334 396.174L145.098 400.824L142.208 483.83C142.281 484.259 142.512 484.646 142.855 484.914L155.527 501.866L155.823 502.101L156.462 502.601C156.789 502.854 157.195 502.983 157.608 502.965L158.685 502.914C158.93 502.902 159.169 502.839 159.387 502.727C159.605 502.616 159.797 502.46 159.951 502.269C160.105 502.08 160.218 501.859 160.28 501.623C160.342 501.387 160.352 501.14 160.31 500.899L156.634 378.011C156.559 377.56 156.309 377.156 155.937 376.89C155.565 376.623 155.103 376.515 154.652 376.589L154.643 376.591Z" fill="#CCCCCC"/>
<path d="M151.893 383.04L146.111 400.653L143.874 471.007L152.874 479.007L151.893 383.04Z" fill="#F3271C"/>
<path d="M107.18 490.356C105.352 489.502 103.264 489.395 101.358 490.057C99.4526 490.72 97.8809 492.1 96.9773 493.903C96.7994 494.273 96.6524 494.656 96.5378 495.05L69.5685 496.662L65.5715 510.634L102.277 504.432C103.947 504.781 105.685 504.567 107.22 503.825C108.756 503.082 110.002 501.852 110.764 500.326C111.624 498.564 111.749 496.533 111.111 494.68C110.473 492.826 109.125 491.302 107.363 490.443C107.303 490.413 107.241 490.384 107.18 490.356Z" fill="#FFB6B6"/>
<path d="M47.6506 421.436C45.8735 420.709 43.9606 420.373 42.042 420.452C40.1235 420.53 38.2442 421.02 36.5321 421.889C34.82 422.759 33.3152 423.987 32.12 425.489C30.9248 426.992 30.0673 428.735 29.6058 430.599L22.1912 460.542L23.5859 512.926C23.5859 512.926 62.2879 520.352 68.785 515.578C75.2821 510.805 74.6721 507.251 75.2821 510.805C75.8922 514.358 78.6808 515.849 78.7195 514.436C78.7583 513.022 79.0737 513.264 80.6927 512.838C82.3118 512.412 89.4576 509.778 89.4576 509.778L89.7776 494.843C89.7776 494.843 77.9641 490.364 75.0981 491.701C72.232 493.037 75.708 495.254 72.232 493.037C68.7559 490.819 68.3759 483.821 67.7816 490.128C67.1873 496.435 65.4473 497.61 62.8412 494.805C60.235 492.001 48.1606 493.792 48.1606 493.792L55.8441 435.562C56.2305 432.633 55.6362 429.659 54.1539 427.104C52.6717 424.548 50.3849 422.555 47.6506 421.436Z" fill="#F3271C"/>
<path d="M440.184 337.618H237.526C234.239 337.614 231.087 336.307 228.762 333.982C226.438 331.658 225.13 328.506 225.127 325.219V297.906C225.13 294.619 226.438 291.467 228.762 289.143C231.087 286.818 234.239 285.511 237.526 285.507H440.184C443.472 285.511 446.623 286.818 448.948 289.143C451.272 291.467 452.58 294.619 452.584 297.906V325.219C452.58 328.506 451.272 331.658 448.948 333.982C446.623 336.307 443.472 337.614 440.184 337.618Z" fill="#E6E6E6"/>
<path d="M363.477 306.888H303.765C303.056 306.888 302.377 306.607 301.876 306.106C301.375 305.605 301.094 304.926 301.094 304.217C301.094 303.509 301.375 302.829 301.876 302.328C302.377 301.827 303.056 301.546 303.765 301.546H363.477C364.185 301.546 364.864 301.827 365.365 302.328C365.866 302.829 366.148 303.509 366.148 304.217C366.148 304.926 365.866 305.605 365.365 306.106C364.864 306.607 364.185 306.888 363.477 306.888Z" fill="white"/>
<path d="M420.907 321.58H303.097C302.389 321.58 301.709 321.298 301.208 320.797C300.707 320.296 300.426 319.617 300.426 318.908C300.426 318.2 300.707 317.521 301.208 317.02C301.709 316.519 302.389 316.237 303.097 316.237H420.907C421.615 316.237 422.294 316.519 422.795 317.02C423.296 317.521 423.578 318.2 423.578 318.908C423.578 319.617 423.296 320.296 422.795 320.797C422.294 321.298 421.615 321.58 420.907 321.58Z" fill="white"/>
<path d="M272.042 329.472C281.933 329.472 289.951 321.454 289.951 311.563C289.951 301.672 281.933 293.653 272.042 293.653C262.151 293.653 254.133 301.672 254.133 311.563C254.133 321.454 262.151 329.472 272.042 329.472Z" fill="white"/>
<path d="M375.184 407.618H172.526C169.239 407.614 166.087 406.307 163.762 403.982C161.438 401.658 160.13 398.506 160.127 395.219V367.906C160.13 364.619 161.438 361.467 163.762 359.143C166.087 356.818 169.239 355.511 172.526 355.507H375.184C378.472 355.511 381.623 356.818 383.948 359.143C386.272 361.467 387.58 364.619 387.584 367.906V395.219C387.58 398.506 386.272 401.658 383.948 403.982C381.623 406.307 378.472 407.614 375.184 407.618Z" fill="#E6E6E6"/>
<path d="M298.477 376.888H238.765C238.056 376.888 237.377 376.607 236.876 376.106C236.375 375.605 236.094 374.926 236.094 374.217C236.094 373.509 236.375 372.829 236.876 372.328C237.377 371.827 238.056 371.546 238.765 371.546H298.477C299.185 371.546 299.864 371.827 300.365 372.328C300.866 372.829 301.148 373.509 301.148 374.217C301.148 374.926 300.866 375.605 300.365 376.106C299.864 376.607 299.185 376.888 298.477 376.888Z" fill="white"/>
<path d="M355.907 391.58H238.097C237.389 391.58 236.709 391.298 236.208 390.797C235.707 390.296 235.426 389.617 235.426 388.909C235.426 388.2 235.707 387.521 236.208 387.02C236.709 386.519 237.389 386.237 238.097 386.237H355.907C356.615 386.237 357.294 386.519 357.795 387.02C358.296 387.521 358.578 388.2 358.578 388.909C358.578 389.617 358.296 390.296 357.795 390.797C357.294 391.298 356.615 391.58 355.907 391.58Z" fill="white"/>
<path d="M207.042 399.472C216.933 399.472 224.951 391.454 224.951 381.563C224.951 371.672 216.933 363.653 207.042 363.653C197.151 363.653 189.133 371.672 189.133 381.563C189.133 391.454 197.151 399.472 207.042 399.472Z" fill="white"/>
</svg>
